<mxfile host="app.diagrams.net" modified="2023-10-21T15:48:37.649Z" agent="Mozilla/5.0 (Windows NT 10.0; Win64; x64) AppleWebKit/537.36 (KHTML, like Gecko) Chrome/116.0.5845.967 YaBrowser/23.9.1.967 Yowser/2.5 Safari/537.36" etag="x-JmwKZmJBGs6Yk_yLno" version="21.6.6" type="device">
  <diagram name="Страница 1" id="wb7VdOwRPPGRvXn5q5qJ">
    <mxGraphModel dx="1893" dy="1872" grid="1" gridSize="10" guides="1" tooltips="1" connect="1" arrows="1" fold="1" page="1" pageScale="1" pageWidth="827" pageHeight="1169" math="0" shadow="0">
      <root>
        <mxCell id="0" />
        <mxCell id="1" parent="0" />
        <mxCell id="XGy2r4NcjkJd1tyE45ug-1" value="" style="edgeStyle=orthogonalEdgeStyle;rounded=0;orthogonalLoop=1;jettySize=auto;html=1;" edge="1" parent="1" source="XGy2r4NcjkJd1tyE45ug-2" target="XGy2r4NcjkJd1tyE45ug-3">
          <mxGeometry relative="1" as="geometry" />
        </mxCell>
        <mxCell id="XGy2r4NcjkJd1tyE45ug-2" value="start" style="ellipse;whiteSpace=wrap;html=1;fontSize=16;" vertex="1" parent="1">
          <mxGeometry x="-520" y="-1139" width="120" height="60" as="geometry" />
        </mxCell>
        <mxCell id="XGy2r4NcjkJd1tyE45ug-28" style="edgeStyle=orthogonalEdgeStyle;rounded=0;orthogonalLoop=1;jettySize=auto;html=1;exitX=0.5;exitY=1;exitDx=0;exitDy=0;entryX=0.5;entryY=0;entryDx=0;entryDy=0;" edge="1" parent="1" source="XGy2r4NcjkJd1tyE45ug-3" target="XGy2r4NcjkJd1tyE45ug-26">
          <mxGeometry relative="1" as="geometry" />
        </mxCell>
        <mxCell id="XGy2r4NcjkJd1tyE45ug-3" value="n [size]" style="shape=parallelogram;perimeter=parallelogramPerimeter;whiteSpace=wrap;html=1;fixedSize=1;fontSize=16;" vertex="1" parent="1">
          <mxGeometry x="-555" y="-1051" width="190" height="52" as="geometry" />
        </mxCell>
        <mxCell id="XGy2r4NcjkJd1tyE45ug-17" style="edgeStyle=orthogonalEdgeStyle;rounded=0;orthogonalLoop=1;jettySize=auto;html=1;exitX=0.5;exitY=1;exitDx=0;exitDy=0;entryX=0.5;entryY=0;entryDx=0;entryDy=0;" edge="1" parent="1" source="XGy2r4NcjkJd1tyE45ug-4" target="XGy2r4NcjkJd1tyE45ug-7">
          <mxGeometry relative="1" as="geometry" />
        </mxCell>
        <mxCell id="XGy2r4NcjkJd1tyE45ug-30" style="edgeStyle=orthogonalEdgeStyle;rounded=0;orthogonalLoop=1;jettySize=auto;html=1;exitX=1;exitY=0.5;exitDx=0;exitDy=0;" edge="1" parent="1" source="XGy2r4NcjkJd1tyE45ug-4">
          <mxGeometry relative="1" as="geometry">
            <mxPoint x="-370" y="-848" as="targetPoint" />
          </mxGeometry>
        </mxCell>
        <mxCell id="XGy2r4NcjkJd1tyE45ug-4" value="&lt;span style=&quot;color: rgb(0, 0, 0); font-family: Helvetica; font-style: normal; font-variant-ligatures: normal; font-variant-caps: normal; font-weight: 400; letter-spacing: normal; orphans: 2; text-align: center; text-indent: 0px; text-transform: none; widows: 2; word-spacing: 0px; -webkit-text-stroke-width: 0px; background-color: rgb(251, 251, 251); text-decoration-thickness: initial; text-decoration-style: initial; text-decoration-color: initial; float: none; display: inline !important;&quot;&gt;&lt;font style=&quot;font-size: 14px;&quot;&gt;i &amp;lt; size&lt;/font&gt;&lt;/span&gt;" style="rhombus;whiteSpace=wrap;html=1;" vertex="1" parent="1">
          <mxGeometry x="-528.5" y="-878" width="130" height="60" as="geometry" />
        </mxCell>
        <mxCell id="XGy2r4NcjkJd1tyE45ug-21" style="edgeStyle=orthogonalEdgeStyle;rounded=0;orthogonalLoop=1;jettySize=auto;html=1;exitX=0;exitY=0.5;exitDx=0;exitDy=0;entryX=0;entryY=0.5;entryDx=0;entryDy=0;" edge="1" parent="1" source="XGy2r4NcjkJd1tyE45ug-5" target="XGy2r4NcjkJd1tyE45ug-4">
          <mxGeometry relative="1" as="geometry">
            <Array as="points">
              <mxPoint x="-620" y="-555" />
              <mxPoint x="-620" y="-848" />
            </Array>
          </mxGeometry>
        </mxCell>
        <mxCell id="XGy2r4NcjkJd1tyE45ug-5" value="&lt;font style=&quot;font-size: 14px;&quot;&gt;nNew[iNew] = n[i]&lt;br&gt;iNew++&lt;/font&gt;" style="rounded=0;whiteSpace=wrap;html=1;" vertex="1" parent="1">
          <mxGeometry x="-531" y="-592" width="145" height="74" as="geometry" />
        </mxCell>
        <mxCell id="XGy2r4NcjkJd1tyE45ug-18" style="edgeStyle=orthogonalEdgeStyle;rounded=0;orthogonalLoop=1;jettySize=auto;html=1;exitX=0.5;exitY=1;exitDx=0;exitDy=0;entryX=0.5;entryY=0;entryDx=0;entryDy=0;" edge="1" parent="1" source="XGy2r4NcjkJd1tyE45ug-7" target="XGy2r4NcjkJd1tyE45ug-8">
          <mxGeometry relative="1" as="geometry" />
        </mxCell>
        <mxCell id="XGy2r4NcjkJd1tyE45ug-7" value="&lt;font style=&quot;font-size: 14px;&quot;&gt;n[i] = nTemp[]&lt;/font&gt;" style="rounded=0;whiteSpace=wrap;html=1;" vertex="1" parent="1">
          <mxGeometry x="-523.5" y="-798" width="123.5" height="60" as="geometry" />
        </mxCell>
        <mxCell id="XGy2r4NcjkJd1tyE45ug-19" style="edgeStyle=orthogonalEdgeStyle;rounded=0;orthogonalLoop=1;jettySize=auto;html=1;exitX=0.5;exitY=1;exitDx=0;exitDy=0;entryX=0.5;entryY=0;entryDx=0;entryDy=0;" edge="1" parent="1" source="XGy2r4NcjkJd1tyE45ug-8" target="XGy2r4NcjkJd1tyE45ug-5">
          <mxGeometry relative="1" as="geometry" />
        </mxCell>
        <mxCell id="XGy2r4NcjkJd1tyE45ug-20" value="ДА" style="edgeLabel;html=1;align=center;verticalAlign=middle;resizable=0;points=[];" vertex="1" connectable="0" parent="XGy2r4NcjkJd1tyE45ug-19">
          <mxGeometry x="-0.0556" y="5" relative="1" as="geometry">
            <mxPoint x="9" as="offset" />
          </mxGeometry>
        </mxCell>
        <mxCell id="XGy2r4NcjkJd1tyE45ug-24" style="edgeStyle=orthogonalEdgeStyle;rounded=0;orthogonalLoop=1;jettySize=auto;html=1;exitX=0;exitY=0.5;exitDx=0;exitDy=0;" edge="1" parent="1" source="XGy2r4NcjkJd1tyE45ug-8">
          <mxGeometry relative="1" as="geometry">
            <mxPoint x="-570" y="-848" as="targetPoint" />
          </mxGeometry>
        </mxCell>
        <mxCell id="XGy2r4NcjkJd1tyE45ug-25" value="НЕТ" style="edgeLabel;html=1;align=center;verticalAlign=middle;resizable=0;points=[];" vertex="1" connectable="0" parent="XGy2r4NcjkJd1tyE45ug-24">
          <mxGeometry x="0.1858" y="-1" relative="1" as="geometry">
            <mxPoint x="19" y="68" as="offset" />
          </mxGeometry>
        </mxCell>
        <mxCell id="XGy2r4NcjkJd1tyE45ug-8" value="&lt;font style=&quot;font-size: 14px;&quot;&gt;nTemp.Length &amp;lt; 4&lt;/font&gt;" style="rhombus;whiteSpace=wrap;html=1;" vertex="1" parent="1">
          <mxGeometry x="-534.5" y="-707" width="154.5" height="80" as="geometry" />
        </mxCell>
        <mxCell id="XGy2r4NcjkJd1tyE45ug-27" style="edgeStyle=orthogonalEdgeStyle;rounded=0;orthogonalLoop=1;jettySize=auto;html=1;exitX=0.5;exitY=1;exitDx=0;exitDy=0;entryX=0.5;entryY=0;entryDx=0;entryDy=0;" edge="1" parent="1" source="XGy2r4NcjkJd1tyE45ug-26" target="XGy2r4NcjkJd1tyE45ug-4">
          <mxGeometry relative="1" as="geometry" />
        </mxCell>
        <mxCell id="XGy2r4NcjkJd1tyE45ug-26" value="&lt;font style=&quot;font-size: 14px;&quot;&gt;i=0&lt;br style=&quot;border-color: var(--border-color);&quot;&gt;iNew=0&lt;br&gt;nNew [0]&lt;/font&gt;&lt;span style=&quot;font-size: 16px;&quot;&gt;&lt;br&gt;&lt;/span&gt;" style="rounded=0;whiteSpace=wrap;html=1;" vertex="1" parent="1">
          <mxGeometry x="-525.25" y="-970" width="125.25" height="70" as="geometry" />
        </mxCell>
        <mxCell id="XGy2r4NcjkJd1tyE45ug-33" style="edgeStyle=orthogonalEdgeStyle;rounded=0;orthogonalLoop=1;jettySize=auto;html=1;exitX=0.5;exitY=1;exitDx=0;exitDy=0;entryX=0.5;entryY=0;entryDx=0;entryDy=0;" edge="1" parent="1" source="XGy2r4NcjkJd1tyE45ug-29" target="XGy2r4NcjkJd1tyE45ug-31">
          <mxGeometry relative="1" as="geometry" />
        </mxCell>
        <mxCell id="XGy2r4NcjkJd1tyE45ug-29" value="&lt;font style=&quot;font-size: 14px;&quot;&gt;Print(nNew)&lt;/font&gt;" style="rounded=0;whiteSpace=wrap;html=1;" vertex="1" parent="1">
          <mxGeometry x="-367" y="-878" width="123.5" height="60" as="geometry" />
        </mxCell>
        <mxCell id="XGy2r4NcjkJd1tyE45ug-31" value="end" style="ellipse;whiteSpace=wrap;html=1;fontSize=16;" vertex="1" parent="1">
          <mxGeometry x="-366" y="-798" width="120" height="60" as="geometry" />
        </mxCell>
        <mxCell id="XGy2r4NcjkJd1tyE45ug-34" value="ДА" style="edgeLabel;html=1;align=center;verticalAlign=middle;resizable=0;points=[];" vertex="1" connectable="0" parent="1">
          <mxGeometry x="-434.5" y="-811.25" as="geometry" />
        </mxCell>
        <mxCell id="XGy2r4NcjkJd1tyE45ug-35" value="НЕТ" style="edgeLabel;html=1;align=center;verticalAlign=middle;resizable=0;points=[];" vertex="1" connectable="0" parent="1">
          <mxGeometry x="-509.99690891261594" y="-740.0024075797819" as="geometry">
            <mxPoint x="123" y="-121" as="offset" />
          </mxGeometry>
        </mxCell>
      </root>
    </mxGraphModel>
  </diagram>
</mxfile>
